<?xml version="1.0" encoding="UTF-8"?>
<svg width="268" height="266" xmlns="http://www.w3.org/2000/svg">
 <path d="m268 266h-268v-266h268zm-145-5h11l12.75 0.09c22.05 0.17 39.93-5.97 60.93-20.91 10.27-7.3 27.76-24.38 29.32-30.18l1.75-1.38c7.53-5.94 20.67-39.74 24.25-70.62v-21l-0.73-1.25c-0.4-0.69-2.65-7.42-5-14.96-10.89-34.96-35.72-64.19-67.88-79.92-62.57-30.61-137.23-4.64-170.03 59.13-6.78 13.18-12.36 31.12-12.36 44l-1.07 1.25c-0.59 0.69-0.82 2.04 0.07 4.75l1 10-1.25 2.02c-1 1.61-1 2.21 1.25 3.98l-0.13 2.25c-0.86 14.47 10.03 43.97 31.13 72.75l3.27 3.75c14.95 17.13 45.17 32.95 65.67 34.37 6.36 0.44 12.57 1.04 16.06 1.88z" fill="rgba(0,0,0,0)"/>
 <path d="m123 261-0.75-153.5-12.37 16.05c-6.81 8.82-25.77 34.36-71.88 97.45-21.1-28.78-31.99-58.28-31.13-72.75l0.13-2.25v-6l-1-10 1-6c0-12.88 5.58-30.82 12.36-44 32.8-63.77 107.46-89.74 170.03-59.13 32.16 15.73 56.99 44.96 67.88 79.92 2.35 7.54 4.6 14.27 5 14.96l0.73 1.25-1.25 0.75c-1 0.6-1 2.7 1.25 20.25-3.58 30.88-16.72 64.68-24.25 70.62l-1.75 1.38-50.25-77.75c-27.64-42.76-50.84-77.75-51.55-77.75-1.03 0-1.24 3.36-1 16 0.16 8.8 0.19 55.26-0.2 190.5z" fill="rgba(94,186,239,1)"/>
 <path d="m134 261c0.39-135.24 0.36-181.7 0.2-190.5-0.24-12.64-0.03-16 1-16 0.71 0 23.91 34.99 51.55 77.75l50.25 77.75c-1.56 5.8-19.05 22.88-29.32 30.18-21 14.94-38.88 21.08-60.93 20.91z" fill="rgba(30,73,104,1)"/>
 <path d="m38 221c46.11-63.09 65.07-88.63 71.88-97.45l12.37-16.05 0.75 153.5c-3.49-0.84-9.7-1.44-16.06-1.88-20.5-1.42-50.72-17.24-65.67-34.37z" fill="rgba(226,239,252,1)"/>
 <path d="m263 117v21c-2.25-17.55-2.25-19.65-1.25-20.25z" fill="rgba(226,239,252,1)"/>
 <path d="m7 140v6c-2.25-1.77-2.25-2.37-1.25-3.98z" fill="rgba(226,239,252,1)"/>
 <path d="m6 130c-0.89-2.71-0.66-4.06-0.07-4.75l1.07-1.25z" fill="rgba(226,239,252,1)"/>
</svg>
