<svg width="248" height="248" viewBox="0 0 248 248" fill="none" xmlns="http://www.w3.org/2000/svg">
<path fill-rule="evenodd" clip-rule="evenodd" d="M124 242C189.17 242 242 189.17 242 124C242 58.8304 189.17 6 124 6C58.8304 6 6 58.8304 6 124C6 189.17 58.8304 242 124 242ZM124 248C192.483 248 248 192.483 248 124C248 55.5167 192.483 0 124 0C55.5167 0 0 55.5167 0 124C0 192.483 55.5167 248 124 248Z" fill="white" fill-opacity="0.2"/>
<path fill-rule="evenodd" clip-rule="evenodd" d="M115.609 99.358L115.132 245.07L109.132 245.053L109.609 99.3413L115.609 99.358Z" fill="white" fill-opacity="0.2"/>
<path fill-rule="evenodd" clip-rule="evenodd" d="M33.5639 206.237L110 100L114.87 103.504L38.4343 209.741L33.5639 206.237Z" fill="white" fill-opacity="0.2"/>
<path fill-rule="evenodd" clip-rule="evenodd" d="M130 71V246H124L124 71H130Z" fill="white" fill-opacity="0.2"/>
<path fill-rule="evenodd" clip-rule="evenodd" d="M209 209L124.797 74.3735L129.884 71.1919L214.087 205.818L209 209Z" fill="white" fill-opacity="0.2"/>
</svg>
